<svg xmlns="http://www.w3.org/2000/svg" width="102.589" height="70" viewBox="0 0 102.589 70"><g transform="translate(-255.863 -167.587)"><ellipse cx="46.587" cy="33.418" rx="46.587" ry="33.418" transform="translate(265.278 169.164)" fill="#5c9984"/><ellipse cx="46.587" cy="33.418" rx="46.587" ry="33.418" transform="translate(264.428 167.587)" fill="#b1e0b2"/><g transform="translate(273.036 178.097)"><path d="M305.476,196.953a5.27,5.27,0,0,1-1.207-3.56c.038-.416.3-1.32.835-.673.074-.319.342-.532.57-.251.324-.461.744.018.886.375a3.046,3.046,0,0,1-.089,1.762c-.191.767-.525,1.488-.7,2.258a9.529,9.529,0,0,1,2.4-2.014c.591-.318,2.151-.16,1.081.6.4-.14.822.112.381.456.824-.066,1.027.389.368.856a4.523,4.523,0,0,1-1.905.667,4.206,4.206,0,0,1-2.579-.355" transform="translate(-300.83 -192.28)" fill="#edd570"/><path d="M302.406,203.664a5.276,5.276,0,0,1,3.112,2.107c.221.355.561,1.232-.258,1.04.133.3.049.631-.3.545.02.563-.6.435-.933.236a3.038,3.038,0,0,1-.994-1.457c-.312-.727-.481-1.5-.809-2.221a9.538,9.538,0,0,1-.693,3.054c-.279.61-1.617,1.426-1.225.174-.237.356-.723.408-.579-.133-.616.551-1.053.311-.81-.46a4.518,4.518,0,0,1,1.114-1.682,4.2,4.2,0,0,1,2.269-1.276" transform="translate(-297.723 -198.776)" fill="#edd570"/><path d="M301.062,200.217a6.7,6.7,0,0,0-3.305-2.391c-.263-.07-1.073-.314-1.264.022s.257.666.532.754c-.4-.057-.9.263-.373.539-.48-.049-.524.289-.352.641.3.612,1.3.526,1.891.57a5.476,5.476,0,0,0,2.953-.094" transform="translate(-296.209 -195.378)" fill="#edd570"/><path d="M306.518,202.517a.622.622,0,1,1-.622-.622A.622.622,0,0,1,306.518,202.517Z" transform="translate(-301.415 -197.802)" fill="#fff"/></g><g transform="translate(333.295 174.731)"><path d="M451.287,196.486c2.38-.109,5.9,1.391,6.872,3.729,1.191,2.873-1.594,3.451-3.439,1.863,2.352,2.553-.275,5.662-1.818,2.254.917,4.418-5.123,3.946-5.434-.338a9.161,9.161,0,0,1,2.4-6.881c-2.391,2.447-6.326,4.517-9.778,3.237-3.89-1.442-2.26-3.389.449-4.742-3.007-.406-2.634-4.714.032-3.432a2.428,2.428,0,0,1-.749-3.819c1.638-2.047,3.71-.753,5.413.4a11.94,11.94,0,0,1,4.585,6.776" transform="translate(-437.783 -186.042)" fill="#dd855e"/><path d="M465.489,194.721c3.113.544,8.5-.511,9.818-3.761,1.1-2.715-1.1-3.278-3.25-2.232,3.692-1.606-.755-5.79-2.476-2.311,1.68-2.032-1.62-2.658-2.985-1.385-2.264,2.112-2.252,7.278-2.062,10.058" transform="translate(-453.103 -184.372)" fill="#dd855e"/><path d="M464.605,207.215a1.043,1.043,0,1,1,1.468.14A1.043,1.043,0,0,1,464.605,207.215Z" transform="translate(-453.051 -196.511)" fill="#f4ee82"/><g transform="translate(8.684 6.731)"><g transform="translate(4.195 3.544)"><path d="M471.669,210.073c-.9-.8-2.324-2.058-3.593-1.355-.061.034-.038.135.036.121,1.327-.235,2.477.6,3.5,1.314.053.037.1-.04.056-.08Z" transform="translate(-468.041 -208.512)" fill="#71875f"/></g><g transform="translate(4.389 3.733)"><path d="M469.678,211.294a9.076,9.076,0,0,1-.693-1.012,4.736,4.736,0,0,1-.415-1.3c-.009-.038-.072-.041-.072,0a3.635,3.635,0,0,0,1.116,2.358.042.042,0,0,0,.064-.053Z" transform="translate(-468.497 -208.957)" fill="#71875f"/></g><g transform="translate(3.258 3.923)"><path d="M466.638,212.727a5.487,5.487,0,0,1-.483-1.594,3.22,3.22,0,0,1-.04-1c.034-.266.209-.416.318-.642a.061.061,0,0,0-.052-.082c-.581-.054-.559.921-.531,1.283a6.474,6.474,0,0,0,.635,2.107c.045.1.2.026.152-.068Z" transform="translate(-465.839 -209.403)" fill="#71875f"/></g><g transform="translate(1.387 3.72)"><path d="M463.472,208.928a2.557,2.557,0,0,0-2.026,2.313c-.01.05.069.066.086.02a3.32,3.32,0,0,1,1.977-2.212c.07-.021.033-.134-.036-.121Z" transform="translate(-461.445 -208.926)" fill="#71875f"/></g><g transform="translate(0.163 2.876)"><path d="M461.427,207.339a2.42,2.42,0,0,0-2.834.155.069.069,0,0,0,.054.121c.9-.218,1.78-.655,2.667-.116a.1.1,0,0,0,.112-.16Z" transform="translate(-458.568 -206.943)" fill="#71875f"/></g><g transform="translate(1.702 0.42)"><path d="M463.722,203.442a3.706,3.706,0,0,1-1.4-2.234.044.044,0,0,0-.085-.008c-.295.966.707,1.859,1.383,2.386.091.071.184-.071.1-.144Z" transform="translate(-462.185 -201.172)" fill="#71875f"/></g><g transform="translate(3.504 0.245)"><path d="M466.963,203.1a2.4,2.4,0,0,1,.079-2.265.047.047,0,0,0-.057-.069c-.869.407-.593,1.786-.149,2.413.049.07.167,0,.127-.079Z" transform="translate(-466.417 -200.762)" fill="#71875f"/></g><g transform="translate(4.101 1.738)"><path d="M467.967,205.435a1.9,1.9,0,0,1,1.475-1.089.034.034,0,0,0,.007-.068,1.723,1.723,0,0,0-1.618,1.061c-.049.093.084.19.136.1Z" transform="translate(-467.82 -204.268)" fill="#71875f"/></g><g transform="translate(4.278 2.559)"><path d="M468.388,206.919a2.678,2.678,0,0,1,1.918-.43.066.066,0,0,0,.029-.128,1.818,1.818,0,0,0-2.068.411c-.083.086.027.229.121.147Z" transform="translate(-468.237 -206.197)" fill="#71875f"/></g><g transform="translate(5.319 1.257)"><path d="M470.837,203.24a.432.432,0,0,0,.55.666.432.432,0,0,0-.55-.666Z" transform="translate(-470.681 -203.139)" fill="#71875f"/></g><g transform="translate(6.2 2.424)"><path d="M472.875,205.96a.344.344,0,0,0,.438.53.344.344,0,0,0-.438-.53Z" transform="translate(-472.751 -205.88)" fill="#71875f"/></g><g transform="translate(5.153 5.82)"><path d="M470.41,213.934a.325.325,0,0,0,.414.5.325.325,0,0,0-.414-.5Z" transform="translate(-470.293 -213.858)" fill="#71875f"/></g><g transform="translate(5.572 3.539)"><path d="M471.494,208.53a.355.355,0,0,0-.217.3.3.3,0,0,0,.266.323.356.356,0,0,0,.335-.157.315.315,0,0,0-.384-.465Z" transform="translate(-471.276 -208.499)" fill="#71875f"/></g><g transform="translate(7.499 4.889)"><path d="M476.021,211.7a.354.354,0,0,0-.218.3.3.3,0,0,0,.267.323.356.356,0,0,0,.335-.157.315.315,0,0,0-.384-.465Z" transform="translate(-475.803 -211.671)" fill="#71875f"/></g><g transform="translate(3.639 6.738)"><path d="M467.349,216.044a.481.481,0,0,0-.478.083.391.391,0,0,0-.052.543l.012.016-.088-.193a1.04,1.04,0,0,0,.049.148.443.443,0,1,0,.556-.6Z" transform="translate(-466.734 -216.015)" fill="#71875f"/></g><g transform="translate(1.179 5.322)"><path d="M461.1,212.781a.4.4,0,0,0,.5.61.4.4,0,0,0-.5-.61Z" transform="translate(-460.955 -212.688)" fill="#71875f"/></g><g transform="translate(2.863 4.706)"><path d="M465.261,211.246a.409.409,0,0,0-.33.26.347.347,0,0,0,.009.252c.008.02.2.263.084.121a.39.39,0,1,0,.237-.633Z" transform="translate(-464.911 -211.241)" fill="#71875f"/></g><g transform="translate(1.286 2.512)"><path d="M461.231,206.337l-.007.027a.376.376,0,0,0,.406.492l.029,0a.389.389,0,1,0-.428-.518Z" transform="translate(-461.207 -206.087)" fill="#71875f"/></g><g transform="translate(0 3.016)"><path d="M458.295,207.342a.3.3,0,0,0,.386.467.3.3,0,0,0-.386-.467Z" transform="translate(-458.185 -207.271)" fill="#71875f"/></g><g transform="translate(1.405 0.364)"><path d="M461.487,201.374v.063a.26.26,0,0,0,.225.272l.061.013c.962.2-.3-1.331-.287-.347Z" transform="translate(-461.487 -201.042)" fill="#71875f"/></g><g transform="translate(3.343 0.024)"><path d="M466.141,200.465l-.01.012a.489.489,0,0,0-.085.373.536.536,0,0,0,.326.4l.016.008c.361.184.75-.222.694-.573a.524.524,0,0,0-.335-.4.535.535,0,0,0-.606.19Z" transform="translate(-466.039 -200.243)" fill="#71875f"/></g><g transform="translate(1.3)"><path d="M461.336,200.383l-.013.019a.468.468,0,0,0,.766.537l.011-.02a.476.476,0,0,0-.114-.65.471.471,0,0,0-.65.114Z" transform="translate(-461.239 -200.186)" fill="#71875f"/></g><g transform="translate(2.041 1.698)"><path d="M463.666,204.418c-.02-.038-.045-.074-.068-.11-.238-.374-.848.13-.525.434.031.029.061.06.1.087a.337.337,0,0,0,.5-.412Z" transform="translate(-462.981 -204.176)" fill="#71875f"/></g><g transform="translate(4.284 1.982)"><path d="M468.842,204.919a.41.41,0,0,0-.492.009.28.28,0,0,0-.037.389c.023.03.1.135.043.05-.005-.129-.011-.257-.016-.386l0,0a.335.335,0,0,0-.032.338l.013.029a.352.352,0,1,0,.524-.432Z" transform="translate(-468.251 -204.842)" fill="#71875f"/></g><g transform="translate(3.716 3.102)"><path d="M467.747,207.722a.44.44,0,0,0-.674-.156l.174-.08-.029.008c-.226.062-.422.363-.214.569q-.066-.116.029.042c.012.015.262.172.119.093a.444.444,0,0,0,.4.034.389.389,0,0,0,.195-.51Z" transform="translate(-466.917 -207.474)" fill="#71875f"/></g></g></g><g transform="translate(334.626 214.128)"><g transform="translate(0 0)"><path d="M450.77,289.835c-1.03,2.148-4.018,4.541-6.536,4.289-3.095-.31-2.286-3.037-.014-3.911-3.361.864-4.857-2.922-1.125-2.668-4.326-1.283-1.052-6.381,2.869-4.628a9.163,9.163,0,0,1,4.924,5.373c-1.024-3.265-.985-7.71,1.776-10.145,3.112-2.745,4.055-.387,3.965,2.639,1.78-2.456,5.4-.089,3.008,1.653a2.428,2.428,0,0,1,3.718,1.148c1.029,2.412-1.092,3.625-2.913,4.58A11.943,11.943,0,0,1,452.3,289" transform="translate(-440.909 -276.931)" fill="#edd570"/><path d="M462.258,303.668c-1.952,2.485-3.57,7.725-1.332,10.429,1.868,2.257,3.407.585,3.5-1.806-.332,4.012,5.458,2.075,3.208-1.088.995,2.442,3.108-.169,2.633-1.974-.788-2.995-5.346-5.429-7.885-6.577" transform="translate(-451.783 -291.704)" fill="#edd570"/><path d="M464.579,302.895a1.043,1.043,0,1,1-.818,1.228A1.043,1.043,0,0,1,464.579,302.895Z" transform="translate(-454.023 -291.832)" fill="#f4ee82"/></g><g transform="translate(6.704 8.71)"><g transform="translate(0.44 3.589)"><path d="M457.764,308.418c1.127-.416,2.913-1.074,2.895-2.525a.064.064,0,0,0-.124-.025c-.421,1.28-1.7,1.9-2.814,2.463-.058.028-.014.108.043.087Z" transform="translate(-457.693 -305.826)" fill="#71875f"/></g><g transform="translate(0.678 3.482)"><path d="M458.3,305.833a9.016,9.016,0,0,1,1.219-.132,4.755,4.755,0,0,1,1.338.248c.038.01.07-.044.032-.065a3.636,3.636,0,0,0-2.6-.133.042.042,0,0,0,.016.082Z" transform="translate(-458.253 -305.576)" fill="#71875f"/></g><g transform="translate(0.331 1.682)"><path d="M457.511,301.513a5.487,5.487,0,0,1,1.633.329,3.217,3.217,0,0,1,.9.44c.218.156.268.38.415.584a.062.062,0,0,0,.1-.007c.322-.486-.547-.928-.879-1.075a6.493,6.493,0,0,0-2.158-.438c-.108-.007-.118.166-.012.166Z" transform="translate(-457.437 -301.347)" fill="#71875f"/></g><g transform="translate(2.669 0.063)"><path d="M464.076,300.431A2.556,2.556,0,0,0,463,297.552c-.039-.032-.09.029-.057.066a3.321,3.321,0,0,1,1.013,2.788c-.014.072.1.093.123.026Z" transform="translate(-462.929 -297.543)" fill="#71875f"/></g><g transform="translate(4.258 0.194)"><path d="M466.8,300.475a2.42,2.42,0,0,0,1.2-2.57.069.069,0,0,0-.132-.009c-.236.9-.265,1.878-1.16,2.4a.1.1,0,0,0,.088.174Z" transform="translate(-466.664 -297.85)" fill="#71875f"/></g><g transform="translate(4.679 2.661)"><path d="M467.78,304.271a3.711,3.711,0,0,1,2.63-.175.044.044,0,0,0,.047-.071c-.712-.717-1.973-.257-2.757.089-.105.046-.024.2.08.157Z" transform="translate(-467.651 -303.646)" fill="#71875f"/></g><g transform="translate(4.448 3.886)"><path d="M467.179,306.688a2.4,2.4,0,0,1,1.958,1.142.047.047,0,0,0,.088-.017c.052-.959-1.293-1.368-2.056-1.274a.076.076,0,0,0,.009.15Z" transform="translate(-467.111 -306.525)" fill="#71875f"/></g><g transform="translate(4.128 3.958)"><path d="M466.371,306.808a1.9,1.9,0,0,1,.261,1.814c-.019.038.031.075.057.038a1.725,1.725,0,0,0-.169-1.928c-.059-.087-.207-.016-.149.075Z" transform="translate(-466.358 -306.694)" fill="#71875f"/></g><g transform="translate(3.185 3.945)"><path d="M464.68,306.771a2.675,2.675,0,0,1-.528,1.893.066.066,0,0,0,.1.086,1.817,1.817,0,0,0,.617-2.015c-.036-.114-.215-.085-.187.037Z" transform="translate(-464.142 -306.662)" fill="#71875f"/></g><g transform="translate(4.066 5.55)"><path d="M467.069,310.769a.432.432,0,0,0-.847.169.432.432,0,0,0,.847-.169Z" transform="translate(-466.212 -310.434)" fill="#71875f"/></g><g transform="translate(2.83 5.824)"><path d="M463.989,311.343a.344.344,0,0,0-.674.135.344.344,0,0,0,.674-.135Z" transform="translate(-463.308 -311.077)" fill="#71875f"/></g><g transform="translate(0.377 3.306)"><path d="M458.19,305.413a.325.325,0,0,0-.638.127.325.325,0,0,0,.638-.127Z" transform="translate(-457.545 -305.161)" fill="#71875f"/></g><g transform="translate(2.192 4.735)"><path d="M462.443,308.9a.356.356,0,0,0-.161-.333.3.3,0,0,0-.411.082.355.355,0,0,0-.02.369.315.315,0,0,0,.592-.118Z" transform="translate(-461.809 -308.52)" fill="#71875f"/></g><g transform="translate(0.091 5.794)"><path d="M457.506,311.388a.354.354,0,0,0-.161-.333.3.3,0,0,0-.411.081.356.356,0,0,0-.02.37.315.315,0,0,0,.592-.118Z" transform="translate(-456.872 -311.007)" fill="#71875f"/></g><g transform="translate(0 1.477)"><path d="M457.4,301.637a.48.48,0,0,0,.153-.46.391.391,0,0,0-.454-.3l-.02,0,.212.014a.986.986,0,0,0-.154-.026.442.442,0,1,0,.263.772Z" transform="translate(-456.66 -300.865)" fill="#71875f"/></g><g transform="translate(2.53)"><path d="M463.388,297.7a.4.4,0,0,0-.776.155.4.4,0,0,0,.776-.155Z" transform="translate(-462.603 -297.395)" fill="#71875f"/></g><g transform="translate(2.285 1.78)"><path d="M462.783,302.1a.411.411,0,0,0-.073-.414.345.345,0,0,0-.226-.111c-.021,0-.324.047-.146.016a.39.39,0,1,0,.445.51Z" transform="translate(-462.028 -301.578)" fill="#71875f"/></g><g transform="translate(4.968 1.414)"><path d="M469.02,300.855l-.02-.02a.375.375,0,0,0-.625.126l-.012.026c-.126.276.177.561.444.507a.391.391,0,0,0,.214-.639Z" transform="translate(-468.332 -300.716)" fill="#71875f"/></g><g transform="translate(5.338 0.105)"><path d="M469.8,297.877a.3.3,0,0,0-.594.119.3.3,0,0,0,.594-.119Z" transform="translate(-469.2 -297.642)" fill="#71875f"/></g><g transform="translate(6.86 2.547)"><path d="M473.348,303.445l-.056-.029a.258.258,0,0,0-.346.069l-.04.047c-.633.752,1.317.362.442-.088Z" transform="translate(-472.777 -303.379)" fill="#71875f"/></g><g transform="translate(5.873 4.33)"><path d="M471.448,307.86l-.006-.014a.485.485,0,0,0-.288-.252.532.532,0,0,0-.5.1l-.014.01a.521.521,0,1,0,.692.778.535.535,0,0,0,.119-.623Z" transform="translate(-470.458 -307.567)" fill="#71875f"/></g><g transform="translate(6.974 2.565)"><path d="M473.945,303.7l-.01-.021a.468.468,0,0,0-.836.421l.013.019a.476.476,0,0,0,.626.207.471.471,0,0,0,.207-.627Z" transform="translate(-473.043 -303.421)" fill="#71875f"/></g><g transform="translate(5.404 2.495)"><path d="M469.661,303.95c.043,0,.086,0,.129-.008.442-.033.286-.809-.134-.668-.04.013-.083.025-.123.042a.338.338,0,0,0,.127.634Z" transform="translate(-469.355 -303.257)" fill="#71875f"/></g><g transform="translate(4.079 4.358)"><path d="M466.752,308.3a.41.41,0,0,0,.225-.437.279.279,0,0,0-.326-.217c-.037.006-.164.02-.064.013l.347.169,0,0a.334.334,0,0,0-.282-.188l-.032,0a.352.352,0,1,0,.133.666Z" transform="translate(-466.242 -307.633)" fill="#71875f"/></g><g transform="translate(3.244 3.296)"><path d="M464.644,305.967c.293.05.493-.267.456-.52,0,.063-.008.127-.012.191,0-.009,0-.019.006-.029.052-.228-.12-.543-.4-.457.089,0,.072,0-.051.006-.019,0-.275.149-.138.061a.443.443,0,0,0-.219.335c-.042.221.169.38.358.413Z" transform="translate(-464.281 -305.138)" fill="#71875f"/></g></g></g><circle cx="0.638" cy="0.638" r="0.638" transform="translate(255.863 207.055)" fill="#fff"/><circle cx="0.426" cy="0.426" r="0.426" transform="translate(323.965 187.476)" fill="#fff"/><circle cx="0.638" cy="0.638" r="0.638" transform="translate(339.714 194.924)" fill="#fff"/><circle cx="1.419" cy="1.419" r="1.419" transform="translate(331.318 225.382)" fill="#5c9984"/><circle cx="0.851" cy="0.851" r="0.851" transform="translate(273.974 190.297)" fill="#5c9984"/><circle cx="0.851" cy="0.851" r="0.851" transform="translate(343.828 183.361)" fill="#5c9984"/><g transform="translate(259.546 207.811)"><path d="M264.938,286.094a.2.2,0,0,0,.11-.025c4.236-2.709,9.711-2.171,14.367-1.094,4.057.939,7.908,2.739,12.151,1.629,2.972-.779,6.869-2.484,7.77-5.785a9.284,9.284,0,0,0-.164-5.086,13.77,13.77,0,0,0-1.8-3.027,12.672,12.672,0,0,0,3.147-2.129c.226-.212-.084-.64-.356-.5-1.116.579-2.2,1.1-3.286,1.571-2.075-3.861-4.283-7.229-8.55-8.841-3.34-1.262-7.115-.729-10.354.539-8.556,3.349-12.039,14.364-13.457,22.613A.223.223,0,0,0,264.938,286.094Z" transform="translate(-264.516 -262.089)" fill="#76995c"/><g transform="translate(4.246 6.54)"><path d="M274.862,290.864c4.829-3.947,11.976-4.783,17.879-5.982,4.975-1.01,12.442-2,15.419-6.626a.5.5,0,0,0-.67-.719,41.614,41.614,0,0,1-8.566,4.229c-3.157.99-6.439,1.555-9.663,2.279a37.341,37.341,0,0,0-14.673,6.432c-.249.181.039.578.274.387Z" transform="translate(-274.492 -277.455)" fill="#5a7c40"/></g><g transform="translate(21.538 10.134)"><path d="M315.345,297.024c3.866-2.467,9.622-6.324,11.4-10.754a.265.265,0,0,0-.393-.321c-1.8,1.341-3.122,3.416-4.639,5.077a40.062,40.062,0,0,1-6.536,5.766c-.152.107.011.332.166.233Z" transform="translate(-315.118 -285.898)" fill="#5a7c40"/></g><g transform="translate(17.121 13.036)"><path d="M304.978,298.821c1.331-1.031,2.7-2.006,4.016-3.062.989-.795,2.211-1.568,2.64-2.806.042-.123-.068-.287-.21-.222a12.061,12.061,0,0,0-2.807,2.5c-1.239,1.148-2.539,2.239-3.82,3.339-.15.129.02.38.181.255Z" transform="translate(-304.739 -292.715)" fill="#5a7c40"/></g><g transform="translate(9.329 14.799)"><path d="M286.63,301.554c1.685-.913,4.421-2.588,4.937-4.572.027-.1-.1-.151-.175-.108a9.979,9.979,0,0,0-2.026,1.867,36.747,36.747,0,0,1-2.88,2.608.125.125,0,0,0,.144.2Z" transform="translate(-286.434 -296.858)" fill="#5a7c40"/></g><g transform="translate(8.484 14.689)"><path d="M284.547,297.35a14.945,14.945,0,0,1,3.464.185c.763.086,1.829.218,2.384-.409a.161.161,0,0,0-.023-.226c-.691-.478-1.812-.254-2.606-.2a17.649,17.649,0,0,0-3.258.479c-.1.026-.06.184.039.172Z" transform="translate(-284.449 -296.6)" fill="#5a7c40"/></g><g transform="translate(9.483 10.183)"><path d="M286.862,286.743a51.41,51.41,0,0,1,7.207.325,25.891,25.891,0,0,1,3.191.6c1.483.365,2.554,1.338,4.058,1.382.185.006.386-.2.235-.377-3.245-3.867-10.378-2.518-14.7-2.056a.062.062,0,0,0,.012.124Z" transform="translate(-286.795 -286.012)" fill="#5a7c40"/></g><g transform="translate(13.442 5.558)"><path d="M296.187,275.656a29.468,29.468,0,0,1,18.165,4.481c.32.207.823-.049.652-.466-.994-2.439-5.063-2.922-7.384-3.512a27.2,27.2,0,0,0-11.45-.672.085.085,0,0,0,.017.168Z" transform="translate(-296.097 -275.146)" fill="#5a7c40"/></g></g><g transform="translate(268.611 168.742)"><g transform="translate(0.678 0.681)" style="mix-blend-mode:multiply;isolation:isolate"><g transform="translate(10.784)"><path d="M390.512,191.95a15.481,15.481,0,0,1-3.634,3.4,13.263,13.263,0,0,0,.137-5.329c-.219-1.188-1.033-3.2-2.516-3.1s-2.248,2.1-2.608,3.276a6.351,6.351,0,0,0,.621,5.355,3.977,3.977,0,0,0,1.825,1.523c-.706.927-1.84,1.843-2.911,1.235-1.232-.7-1.345-2.7-1.292-3.923a19.038,19.038,0,0,1,.576-2.408,7.178,7.178,0,0,1,.752-2.69c1.086-1.643-1.348-3.472-2.69-2.085-1.644,1.7-1.566,4.184-1.142,6.356-.017.037-.034.074-.051.11a11.506,11.506,0,0,1-2.417,3.544,4.3,4.3,0,0,1-.781.585,2.162,2.162,0,0,1-.352.046,1.244,1.244,0,0,1-.809-.26c-.355-.581-.783-1.111-1.122-1.73-.629-1.15-.249-2.908-.16-4.151.037-.538.065-1.075.086-1.611.184-.227.372-.453.572-.678a20.567,20.567,0,0,0,4.189-7.11c.838-2.458,2.593-9.824-1.609-10.383-2.059-.274-3.565,1.879-4.311,3.5a29.818,29.818,0,0,0-2.145,8.9,36.28,36.28,0,0,0-.087,9.243c.007.054.016.108.024.161q-.587,1.08-1.254,2.108c-.07.109-.141.218-.213.326-.019.021-.037.042-.055.064-1.129,1.448-2.813,2.5-4.07.366a5.573,5.573,0,0,1-.441-2.407c-.1-1.411.036-2.843,0-4.258,0-.1,0-.2,0-.294.279-.322.565-.641.853-.962,3.051-3.419,5.38-8.46,4.874-13.149-.166-1.53-1.076-3.4-2.911-3.159-1.662.221-2.73,2.193-3.463,3.514-2.911,5.257-3.111,11.359-2.914,17.236a8.628,8.628,0,0,0,.091,1.007,12.935,12.935,0,0,1-3.027,3.829,2.088,2.088,0,0,1-1.893-.346c-.292-.266-.347-.94-.464-1.294a3.753,3.753,0,0,1-.157-.8,4.254,4.254,0,0,0,.8-.512,9.648,9.648,0,0,0,2.77-4.218c.523-1.386.649-3.487-.468-4.653-1.055-1.1-2.431-.544-3.365.416a13.416,13.416,0,0,0-3.337,8.62c-.043,2.034.7,3.918,2.68,4.521,3.8,1.157,6.066-3.426,6.679-4.531a7.93,7.93,0,0,0,1.474,2.872c.907,1.115,2.653,2.051,3.98,1.377A6.536,6.536,0,0,0,367,197.638l.033-.045a16.111,16.111,0,0,0,1.894-2.7,6.113,6.113,0,0,0,2.677,3.824,2.788,2.788,0,0,0,3.141.22c1.5-.727,2.448-2.554,3.181-3.993a10.484,10.484,0,0,0,1.438,3.822,3.393,3.393,0,0,0,4.534,1.073,5.452,5.452,0,0,0,2.278-2.491,3.932,3.932,0,0,0,1.649-.549c1.614-.972,2.449-2.931,3.1-4.605C391.016,191.958,390.672,191.775,390.512,191.95Zm-35.568-5.023c.739-.548,1.06.334,1.194.909a4.392,4.392,0,0,1-.311,2.215,8.474,8.474,0,0,1-1.926,3.261,4.261,4.261,0,0,1-.366.338c.027-1.445.229-2.942.389-4.336A3.526,3.526,0,0,1,354.944,186.927Zm19.29-11.387c.187-.532.47-1.466,1.145-1.468.882,0,1.058,1.55,1.11,2.146a16.138,16.138,0,0,1-1.271,6.755,22.648,22.648,0,0,1-3.138,5.427,43.52,43.52,0,0,1,.395-5.372A42.789,42.789,0,0,1,374.234,175.54Zm-11.457,10.2c.112-1.389.3-2.776.517-4.153.216-1.4.264-2.824.469-4.227a8.589,8.589,0,0,1,.669-2.689c.478-.956,1.543-1.484,2.24-.429.936,1.419.442,3.761.2,5.328a19.893,19.893,0,0,1-3.143,8.007c-.36.529-.735,1.045-1.115,1.555C362.617,188,362.684,186.861,362.777,185.736Zm21.628,2.651c1.019-1.172,1.726,2.532,1.744,3.047a8.817,8.817,0,0,1-.942,4.131c-1.211-.447-1.953-2.206-1.989-3.446A6.194,6.194,0,0,1,384.4,188.387Z" transform="translate(-334.146 -171.9)" fill="#b1e0b2"/><path d="M327.815,203.706c-.043-.007-.087-.011-.13-.016.013-.13.024-.26.037-.389.128-1.251.425-2.486.506-3.739.061-.944.333-2.444-.23-3.268a.842.842,0,0,0-.933-.382c-1.138.337-1.411,1.74-1.548,2.77-.172,1.293-.391,2.578-.549,3.873-.063.515-.11,1.028-.145,1.542-.213.052-.423.1-.629.142-1.051.208-2.1.412-3.147.642.02-.4.039-.792.064-1.188q.179-2.849.442-5.693c.157-1.721,1.428-3.532.508-5.2a1.434,1.434,0,0,0-1.956-.517c-1.446.971-1.746,3.254-2.036,4.872a54.927,54.927,0,0,0-.521,6.147c-.056.878-.119,1.761-.167,2.644-1.517.581-2.966,1.285-4.489,1.958-.326.145-.073.574.222.53a29.43,29.43,0,0,0,4.208-1.058c-.014.534-.02,1.068-.008,1.6.038,1.69.121,3.906,1.309,5.239a.511.511,0,0,0,.719,0c1.191-1.182,1.381-3.277,1.487-4.859.065-.977.106-1.956.147-2.935,1.246-.266,2.509-.5,3.775-.672q-.012.609-.006,1.222c.01,1.141-.043,2.9.909,3.714a.53.53,0,0,0,.729,0c.877-.74.883-2.284.968-3.338q.076-.941.16-1.883l.057,0C328.523,205.405,328.867,203.873,327.815,203.706Z" transform="translate(-312.743 -183.493)" fill="#b1e0b2"/></g><g transform="translate(0 31.767)"><path d="M293,257.9a9.917,9.917,0,0,1-.757-3.435c-.017-1.048.77-2.524,2.022-1.963,1.55.7,2.659,3.542,3.057,5.087a.183.183,0,0,0,.358-.047c.144-2.617-1.632-8.316-5.338-6.608-3.952,1.819-2.361,7.86-1.192,10.95a33.846,33.846,0,0,1,1.484,4.9,16.839,16.839,0,0,1,.346,2.638c.022.415.035.826.029,1.242A7.455,7.455,0,0,0,293,271.71c-.054.314-.148.627-.232.933a2.484,2.484,0,0,1-.123.37c-.245.3-.947.679-.08.316a5.85,5.85,0,0,1-1.528.521c-2.354.256-2.43-3.78-2.986-5.414-.083-.245-.492-.3-.548,0a7.854,7.854,0,0,0,1.151,5.273c1.059,1.8,2,3.565,4.421,3.446,2.348-.116,4.081-1,5-3.293a8.93,8.93,0,0,0-.31-6.044C296.541,264.324,294.336,261.32,293,257.9Zm-.355,15.12c-.019.04-.02.03,0,0Z" transform="translate(-287.407 -248.88)" fill="#b1e0b2"/><path d="M325.345,254.394c-1.921.644-3.04,2.773-3.751,4.515a59.579,59.579,0,0,0-2.114,7.133c-.023.085-.044.171-.067.257-.129-2.05-.219-4.1-.3-6.17a1.535,1.535,0,0,0-3.068-.006c-.427,3.691.189,7.552.6,11.222.208,1.868.4,3.735.536,5.611a35.388,35.388,0,0,0,.3,5.359,1.408,1.408,0,0,0,2.7.006,15.612,15.612,0,0,0,.163-5.358c-.033-.6-.079-1.194-.129-1.789a5.155,5.155,0,0,0,3.348-.771c2.461-1.54,3.463-4.633,4.048-7.3.736-3.366,1.554-7.715.558-11.1A2.137,2.137,0,0,0,325.345,254.394Zm-4.965,15.892q.693-3.681,1.709-7.3a22.3,22.3,0,0,1,1.97-5.166c.342-.6,1.955-2.783,2.477-1.371C327.646,259.442,324.232,273.211,320.38,270.286Z" transform="translate(-303.771 -250.974)" fill="#b1e0b2"/><path d="M361.338,246.557c-3.024-.377-5.343,3.755-6.53,5.9a33.585,33.585,0,0,0-1.69,3.592c.009-.117.017-.233.027-.349a18.778,18.778,0,0,0-.133-6.264,1.135,1.135,0,0,0-2.055-.273c-2.164,3.648-2.088,9.007-1.938,13.123a46.834,46.834,0,0,0,.72,6.455c.364,2.056.822,4.221,2.614,5.48a.667.667,0,0,0,.969-.392c.645-1.767.123-3.6-.154-5.4a32.7,32.7,0,0,1-.343-4.375,1.282,1.282,0,0,0,.408-.212,25.745,25.745,0,0,1,2.4-1.574c.837,1.154.649,3.561.7,5.038.083,2.373,1.183,7.5,4.677,6.362a1.515,1.515,0,0,0,1.111-1.453c-.114-1.4-1.019-2.561-1.344-3.921-.347-1.448-.417-2.955-.789-4.4a7.617,7.617,0,0,0-1.582-3.326c.3-.2.588-.4.872-.615a11.972,11.972,0,0,0,3.685-4.776C363.873,253.1,364.823,246.992,361.338,246.557Zm-.845,8.93c-1.588,2.5-4.311,3.6-6.83,4.941.464-1.393.918-2.79,1.511-4.118,1.135-2.54,2.593-5.544,4.9-7.227,1.2-.875,1.589-.49,1.826.91A7.872,7.872,0,0,1,360.493,255.487Z" transform="translate(-322.757 -246.533)" fill="#b1e0b2"/><path d="M395.066,260.3a.505.505,0,0,0-.69.028c-1.166,1.019-.911,3.182-1.025,4.592-.164,2.018-.291,4.037-.468,6.055-.272,3.11-.762,6.285-.821,9.406-.043,2.3,3.274,2.02,3.477-.14.294-3.136.64-6.229.68-9.4.025-2.01.063-4.027-.019-6.036C396.142,263.4,396.307,261.235,395.066,260.3Z" transform="translate(-347.516 -254.368)" fill="#b1e0b2"/><path d="M395.389,248.079a2.05,2.05,0,0,0-.524-.2,2.155,2.155,0,0,0-.678-.086,2.072,2.072,0,0,0-1.493.69c-.123.162-.242.33-.355.5l.328-.461a2.274,2.274,0,0,0-.518,2.258,2.278,2.278,0,1,0,3.24-2.7Z" transform="translate(-347.506 -247.257)" fill="#b1e0b2"/><path d="M421.466,249.625c-1.212.3-2.129,1.6-2.826,2.536a27.9,27.9,0,0,0-3.094,5.727q-.292.682-.557,1.373.066-1.929.091-3.861c.026-1.921.175-4.021-.611-5.8a1.666,1.666,0,0,0-2.865-.006c-.8,1.8-.605,3.855-.634,5.8-.029,2.074.066,4.151.165,6.222.1,2.091.218,4.18.324,6.27.072,1.408-.257,3.175.093,4.519.465,1.789,3.1,1.032,2.742-.75.156.784.159-.923.164-1.085q.04-1.339.081-2.679c.009-.315.026-.632.041-.948.686-1.9,1.462-3.776,2.185-5.607,1.206-3.048,2.222-6.618,4.48-9.094,1.38-1.513.956.874.809,1.791a59.355,59.355,0,0,1-1.571,5.738,53.539,53.539,0,0,0-1.573,11.647,3.021,3.021,0,0,0,2.049,3.419,2.873,2.873,0,0,0,3.59-2.724c.391-4.881.746-9.755.951-14.647C425.594,255.244,425.14,248.726,421.466,249.625Z" transform="translate(-358.374 -247.825)" fill="#b1e0b2"/><path d="M461.574,273.933a52.978,52.978,0,0,0-.76-7.186c-.031-.191-.051-.644-.1-1.176.054-.515.093-1.025.117-1.521.176-1.984-2.9-2.8-3.767-1.029-.95,1.946-1.123,4.165-2.248,6.024a1.091,1.091,0,0,1-.453.451,1.678,1.678,0,0,1-.821.129c-.2,0-.195-.049-.167-.036a2.2,2.2,0,0,1-.7-.547c-2.133-2.144-2.548-6.3-2.478-9.166.07-2.883.98-6.858,2.881-9.07,1.393-1.621,3.146-.257,4.014,1.161a12.783,12.783,0,0,1,1.364,3.49c.192.746.684,2.249.426,2.976-.195.549.767.8.854.238a8.591,8.591,0,0,0,.207-3.213,14.477,14.477,0,0,0-1.525-4.262c-.925-1.729-2.908-3.23-4.94-2.55-1.961.657-2.911,3.056-3.544,4.82a22.644,22.644,0,0,0-1.348,6.018,40.647,40.647,0,0,0,.091,6.209c.211,2.289.524,4.837,1.98,6.7a4.767,4.767,0,0,0,6.665.683,7.14,7.14,0,0,0,1.619-1.774,30.21,30.21,0,0,1-.065,3.555,6.443,6.443,0,0,1-.548,2.315,1.846,1.846,0,0,1-.737.8c-.406.167-1.414-.929-.758-.052a1.421,1.421,0,0,0-1.9-.5l-.052.031a1.477,1.477,0,0,0-.3,2.29,3.768,3.768,0,0,0,5.206.26C461.41,278.289,461.63,276.2,461.574,273.933Z" transform="translate(-379.934 -247.65)" fill="#b1e0b2"/></g></g><g transform="translate(10.784)"><path d="M388.919,190.351a15.476,15.476,0,0,1-3.633,3.4,13.261,13.261,0,0,0,.137-5.328c-.219-1.189-1.032-3.2-2.516-3.1s-2.249,2.1-2.608,3.276a6.354,6.354,0,0,0,.62,5.355,3.986,3.986,0,0,0,1.826,1.524c-.706.927-1.84,1.842-2.912,1.235-1.232-.7-1.345-2.7-1.292-3.923a19.25,19.25,0,0,1,.575-2.407,7.2,7.2,0,0,1,.754-2.69c1.085-1.644-1.349-3.472-2.691-2.085-1.644,1.7-1.566,4.183-1.141,6.356-.017.036-.034.074-.051.11a11.5,11.5,0,0,1-2.418,3.544,4.311,4.311,0,0,1-.78.584,2.13,2.13,0,0,1-.352.046,1.245,1.245,0,0,1-.809-.26c-.355-.582-.784-1.111-1.122-1.731-.629-1.15-.249-2.908-.161-4.151.038-.538.064-1.075.086-1.611.183-.226.372-.453.572-.678a20.559,20.559,0,0,0,4.189-7.11c.838-2.458,2.593-9.824-1.608-10.383-2.06-.274-3.566,1.879-4.312,3.5a29.815,29.815,0,0,0-2.145,8.9,36.318,36.318,0,0,0-.087,9.243c.007.054.016.108.025.161-.392.72-.813,1.423-1.256,2.108-.07.109-.141.217-.213.326-.018.021-.037.042-.055.064-1.129,1.448-2.812,2.5-4.069.366a5.567,5.567,0,0,1-.441-2.407c-.1-1.411.036-2.843,0-4.258,0-.1,0-.2,0-.294.279-.322.565-.641.852-.962,3.051-3.418,5.382-8.46,4.875-13.149-.165-1.53-1.076-3.4-2.911-3.159-1.662.221-2.73,2.193-3.462,3.515-2.911,5.257-3.111,11.358-2.915,17.235a8.825,8.825,0,0,0,.092,1.008,12.932,12.932,0,0,1-3.027,3.829,2.087,2.087,0,0,1-1.892-.346c-.293-.265-.347-.94-.464-1.294a3.748,3.748,0,0,1-.157-.8,4.237,4.237,0,0,0,.8-.512,9.637,9.637,0,0,0,2.771-4.218c.523-1.386.649-3.487-.468-4.652-1.055-1.1-2.431-.545-3.366.416a13.411,13.411,0,0,0-3.337,8.619c-.044,2.034.7,3.918,2.68,4.521,3.8,1.157,6.066-3.426,6.679-4.531a7.92,7.92,0,0,0,1.474,2.872c.906,1.115,2.653,2.052,3.981,1.377a6.543,6.543,0,0,0,2.175-1.766l.033-.045a16.028,16.028,0,0,0,1.895-2.7,6.1,6.1,0,0,0,2.677,3.823,2.786,2.786,0,0,0,3.14.221c1.5-.727,2.448-2.555,3.182-3.994a10.465,10.465,0,0,0,1.438,3.822,3.392,3.392,0,0,0,4.533,1.073,5.449,5.449,0,0,0,2.277-2.491,3.938,3.938,0,0,0,1.651-.549c1.614-.973,2.449-2.932,3.1-4.605C389.422,190.359,389.08,190.176,388.919,190.351Zm-35.568-5.024c.739-.547,1.061.335,1.194.909a4.389,4.389,0,0,1-.311,2.215,8.473,8.473,0,0,1-1.926,3.262,4.249,4.249,0,0,1-.366.338c.026-1.445.229-2.942.388-4.336A3.53,3.53,0,0,1,353.35,185.327Zm19.291-11.387c.186-.532.47-1.466,1.145-1.468.882,0,1.058,1.55,1.109,2.146a16.131,16.131,0,0,1-1.27,6.755,22.722,22.722,0,0,1-3.138,5.427,43.442,43.442,0,0,1,.394-5.373A42.741,42.741,0,0,1,372.641,173.941Zm-11.458,10.2c.113-1.389.305-2.776.517-4.153.216-1.4.263-2.824.47-4.226a8.565,8.565,0,0,1,.669-2.69c.477-.956,1.544-1.484,2.239-.429.937,1.419.443,3.761.2,5.329a19.906,19.906,0,0,1-3.142,8.007c-.361.529-.736,1.045-1.116,1.555C361.024,186.4,361.091,185.262,361.183,184.136Zm21.629,2.651c1.018-1.172,1.726,2.532,1.744,3.047a8.809,8.809,0,0,1-.943,4.131c-1.21-.448-1.952-2.206-1.989-3.446A6.192,6.192,0,0,1,382.812,186.788Z" transform="translate(-332.553 -170.301)" fill="#fff"/><path d="M326.222,202.106c-.043-.006-.087-.011-.13-.016.013-.13.024-.26.037-.39.128-1.251.425-2.486.506-3.739.061-.945.333-2.445-.23-3.268a.841.841,0,0,0-.932-.381c-1.138.337-1.411,1.74-1.548,2.77-.172,1.293-.39,2.578-.549,3.872-.063.515-.11,1.028-.145,1.542-.212.051-.423.1-.629.142-1.052.208-2.1.411-3.147.642.019-.4.039-.792.064-1.188q.18-2.849.443-5.693c.157-1.721,1.428-3.532.507-5.2a1.434,1.434,0,0,0-1.955-.517c-1.447.971-1.746,3.255-2.036,4.872a55.031,55.031,0,0,0-.52,6.147c-.056.879-.119,1.761-.167,2.645-1.517.581-2.966,1.284-4.489,1.958-.326.144-.073.573.222.529a29.4,29.4,0,0,0,4.208-1.057c-.014.534-.019,1.067-.007,1.6.038,1.69.121,3.907,1.31,5.24a.511.511,0,0,0,.719,0c1.191-1.182,1.382-3.278,1.486-4.859.065-.977.106-1.956.147-2.935,1.246-.266,2.509-.5,3.775-.672q-.012.609-.006,1.222c.01,1.141-.043,2.9.91,3.714a.531.531,0,0,0,.729,0c.877-.74.883-2.284.968-3.338q.076-.941.16-1.883l.057,0C326.93,203.806,327.274,202.274,326.222,202.106Z" transform="translate(-311.149 -181.894)" fill="#fff"/></g><g transform="translate(0 31.766)"><path d="M291.406,256.3a9.909,9.909,0,0,1-.757-3.434c-.017-1.049.77-2.524,2.022-1.963,1.55.695,2.659,3.541,3.057,5.086a.183.183,0,0,0,.357-.048c.144-2.617-1.631-8.316-5.338-6.608-3.952,1.82-2.36,7.861-1.192,10.95a33.851,33.851,0,0,1,1.484,4.9,16.8,16.8,0,0,1,.346,2.639c.022.415.036.827.029,1.242a7.443,7.443,0,0,0-.006,1.043c-.054.315-.148.628-.232.934a2.687,2.687,0,0,1-.123.37c-.246.3-.947.679-.08.315a5.88,5.88,0,0,1-1.528.522c-2.354.255-2.43-3.781-2.986-5.415-.083-.244-.492-.3-.548,0a7.854,7.854,0,0,0,1.151,5.273c1.059,1.8,2,3.566,4.42,3.446,2.348-.116,4.081-1,5-3.293a8.931,8.931,0,0,0-.31-6.045C294.948,262.724,292.743,259.72,291.406,256.3Zm-.355,15.121c-.02.04-.02.03,0,0Z" transform="translate(-285.814 -247.28)" fill="#fff"/><path d="M323.752,252.795c-1.921.645-3.04,2.773-3.751,4.515a59.5,59.5,0,0,0-2.114,7.133c-.023.086-.044.172-.067.258-.129-2.051-.219-4.1-.3-6.17a1.535,1.535,0,0,0-3.068-.006c-.427,3.691.189,7.551.6,11.221.209,1.868.4,3.735.536,5.611a35.393,35.393,0,0,0,.3,5.359,1.408,1.408,0,0,0,2.7.005,15.61,15.61,0,0,0,.163-5.358c-.033-.6-.079-1.193-.129-1.789a5.161,5.161,0,0,0,3.348-.77c2.461-1.54,3.463-4.634,4.047-7.3.736-3.366,1.554-7.715.558-11.1A2.135,2.135,0,0,0,323.752,252.795Zm-4.965,15.892q.693-3.681,1.709-7.3a22.3,22.3,0,0,1,1.971-5.166c.341-.6,1.954-2.783,2.476-1.371C326.053,257.843,322.638,271.611,318.787,268.687Z" transform="translate(-302.178 -249.374)" fill="#fff"/><path d="M359.744,244.957c-3.024-.377-5.343,3.756-6.53,5.9a33.54,33.54,0,0,0-1.69,3.592c.009-.117.017-.233.027-.349a18.789,18.789,0,0,0-.132-6.264,1.135,1.135,0,0,0-2.056-.273c-2.164,3.648-2.088,9.007-1.938,13.123a46.769,46.769,0,0,0,.72,6.455c.364,2.056.822,4.221,2.614,5.48a.666.666,0,0,0,.969-.392c.645-1.767.123-3.6-.154-5.4a32.645,32.645,0,0,1-.342-4.375,1.294,1.294,0,0,0,.408-.212,25.7,25.7,0,0,1,2.4-1.574c.836,1.154.649,3.561.7,5.038.083,2.372,1.183,7.5,4.678,6.362a1.515,1.515,0,0,0,1.11-1.454c-.114-1.4-1.018-2.56-1.343-3.921-.348-1.448-.417-2.955-.789-4.4a7.616,7.616,0,0,0-1.582-3.326c.295-.2.587-.4.872-.616a11.988,11.988,0,0,0,3.686-4.775C362.281,251.5,363.23,245.392,359.744,244.957Zm-.844,8.93c-1.589,2.505-4.313,3.6-6.831,4.941.464-1.393.919-2.79,1.512-4.118,1.135-2.539,2.593-5.543,4.9-7.227,1.2-.875,1.589-.489,1.826.911A7.877,7.877,0,0,1,358.9,253.887Z" transform="translate(-321.164 -244.933)" fill="#fff"/><path d="M393.473,258.7a.506.506,0,0,0-.691.028c-1.165,1.019-.91,3.182-1.024,4.591-.164,2.018-.291,4.038-.468,6.055-.272,3.11-.763,6.285-.821,9.405-.043,2.3,3.274,2.02,3.477-.139.294-3.136.64-6.23.68-9.4.025-2.01.063-4.026-.02-6.036C394.549,261.8,394.714,259.635,393.473,258.7Z" transform="translate(-345.924 -252.768)" fill="#fff"/><path d="M393.8,246.479a2.074,2.074,0,0,0-.525-.2,2.146,2.146,0,0,0-.678-.086,2.068,2.068,0,0,0-1.493.69c-.124.162-.241.329-.354.5.109-.154.217-.307.327-.461a2.274,2.274,0,0,0-.519,2.258,2.278,2.278,0,1,0,3.241-2.7Z" transform="translate(-345.913 -245.658)" fill="#fff"/><path d="M419.871,248.025c-1.211.3-2.127,1.605-2.825,2.536a27.945,27.945,0,0,0-3.094,5.727q-.293.683-.557,1.374.066-1.929.091-3.862c.029-1.921.175-4.021-.609-5.8a1.667,1.667,0,0,0-2.865-.006c-.8,1.8-.607,3.855-.635,5.8-.03,2.075.065,4.152.166,6.223.1,2.091.217,4.181.324,6.271.073,1.407-.258,3.174.092,4.519.466,1.788,3.1,1.031,2.742-.75.158.784.159-.924.164-1.085q.042-1.339.082-2.678c.01-.316.026-.632.04-.948.688-1.9,1.463-3.776,2.186-5.607,1.205-3.048,2.221-6.618,4.479-9.094,1.38-1.513.957.874.809,1.792a59.015,59.015,0,0,1-1.57,5.738,53.582,53.582,0,0,0-1.574,11.647,3.021,3.021,0,0,0,2.049,3.419,2.873,2.873,0,0,0,3.591-2.725c.391-4.881.746-9.754.95-14.647C424,253.644,423.546,247.127,419.871,248.025Z" transform="translate(-356.78 -246.226)" fill="#fff"/><path d="M459.981,272.333a52.985,52.985,0,0,0-.76-7.186c-.031-.191-.051-.644-.1-1.176.055-.516.093-1.026.117-1.522.175-1.985-2.9-2.8-3.767-1.029-.95,1.946-1.124,4.166-2.248,6.024a1.082,1.082,0,0,1-.452.451,1.678,1.678,0,0,1-.821.129c-.2,0-.2-.049-.167-.036a2.2,2.2,0,0,1-.7-.546c-2.133-2.144-2.549-6.3-2.479-9.167.07-2.883.981-6.858,2.882-9.069,1.393-1.621,3.146-.258,4.012,1.161a12.762,12.762,0,0,1,1.365,3.49c.193.746.684,2.248.426,2.976-.2.548.767.8.854.237a8.559,8.559,0,0,0,.206-3.212,14.424,14.424,0,0,0-1.525-4.262c-.925-1.729-2.907-3.23-4.941-2.55-1.96.656-2.91,3.055-3.542,4.82a22.586,22.586,0,0,0-1.348,6.018,40.375,40.375,0,0,0,.091,6.209c.21,2.289.522,4.836,1.979,6.7a4.766,4.766,0,0,0,6.664.682,7.114,7.114,0,0,0,1.619-1.774,30.027,30.027,0,0,1-.064,3.555,6.431,6.431,0,0,1-.549,2.314,1.853,1.853,0,0,1-.738.8c-.406.167-1.414-.929-.758-.053a1.419,1.419,0,0,0-1.9-.5l-.053.031a1.477,1.477,0,0,0-.3,2.289,3.767,3.767,0,0,0,5.2.26C459.816,276.69,460.037,274.6,459.981,272.333Z" transform="translate(-378.341 -246.05)" fill="#fff"/></g></g></g></svg>