<svg xmlns="http://www.w3.org/2000/svg" width="24" height="24.005" viewBox="0 0 24 24.005"><path d="M16.286,15.356C15.584,11.034,13.929,8,12,8s-3.581,3.034-4.283,7.356ZM7.356,20a30.335,30.335,0,0,0,.16,3.1h8.968a30.335,30.335,0,0,0,.16-3.1,30.335,30.335,0,0,0-.16-3.1H7.516A30.335,30.335,0,0,0,7.356,20Zm15.714-4.646A12.028,12.028,0,0,0,15.424,8.5a16.334,16.334,0,0,1,2.42,6.853ZM8.576,8.5A12.02,12.02,0,0,0,.934,15.356H6.161A16.268,16.268,0,0,1,8.576,8.5Zm15.013,8.4H18.038c.1,1.016.16,2.057.16,3.1s-.058,2.081-.16,3.1h5.546A11.9,11.9,0,0,0,24,20,12.107,12.107,0,0,0,23.589,16.905ZM5.808,20c0-1.041.058-2.081.16-3.1H.416a11.733,11.733,0,0,0,0,6.195H5.962C5.866,22.083,5.808,21.043,5.808,20Zm1.912,4.646C8.421,28.97,10.076,32,12,32s3.581-3.034,4.283-7.356Zm7.71,6.853a12.039,12.039,0,0,0,7.647-6.853H17.849A16.334,16.334,0,0,1,15.429,31.5ZM.934,24.649A12.028,12.028,0,0,0,8.581,31.5a16.334,16.334,0,0,1-2.42-6.853H.934Z" transform="translate(0 -8)" fill="#fff"/></svg>