<svg xmlns="http://www.w3.org/2000/svg" width="138.278" height="141.79" viewBox="0 0 138.278 141.79"><g transform="translate(-514 -793)"><circle cx="60" cy="60" r="60" transform="translate(519 799)" fill="#b1e0b2"/><path d="M297.248-1.935a151.619,151.619,0,0,0,6.594,22.888q2.362,7.632,26.277,22.889,19.193,12.485,19.192,30.419,0,14.862-13.68,27.446h-1.968q5.019-11.295,5.019-19.816V80.4q0-24.77-27.262-38.643v.495q18.207,18.333,18.207,39.139,0,12.782-5.117,20.808H312.4l-.984-.5q.982-2.674.984-10.6V87.538a71.636,71.636,0,0,0-14.073-43.2h-1.083q6.593,22,6.594,39.139-.69,19.818-2.559,19.816a115.077,115.077,0,0,0-12.6.991Q274.12,92.1,274.12,76.342q0-11.493,9.546-30.518h-.492l-.984-.5q-13.68,21.008-13.68,36.563v2.575q0,16.549,17.715,28.933v1.09q-19.98,0-31.3-24.474a28.9,28.9,0,0,1-2.066-11.692v-.495q0-13.872,11.121-29.924h-.492Q249.319,66.831,249.319,82.98v.991q0,10.9,9.644,21.8h-.492q-17.714-11.394-17.715-27.942V74.261q0-16.446,30.313-42.607,7.578-8.62,7.578-31.013Q280.419-.251,297.248-1.935Zm81.293,88.383.493,1.09q0,.694-6,1.982-4.037,0-4.035,22.888-8.859,27.447-33.856,27.447H331.6q-21.849,0-35.332-18.826a45.087,45.087,0,0,1-.492-6.54v-3.567q0-2.377,41.434-3.072,18.8-2.674,23.718-8.124,1.477-.6,6.5-9.711Q371.354,86.448,378.541,86.448Zm-15.648,23.979q-11.124,17.737-31.789,17.736h-.985q-12.894,0-24.7-8.125l-.591,3.567v.991q16.239,10.206,27.262,10.2h5.61q18.107,0,27.262-23.384h-.492Z" transform="translate(273.244 794.935)" fill="#295732"/></g></svg>