<svg xmlns="http://www.w3.org/2000/svg" width="144.871" height="142.187" viewBox="0 0 144.871 142.187"><g transform="translate(-888 -790)"><circle cx="60" cy="60" r="60" transform="translate(899 799)" fill="#b1e0b2"/><path d="M1248.507,759.312h.689v2.18q0,15.063-33.758,50.434h-.787a4.832,4.832,0,0,0-2.165-.792q-2.266,3.666-5.216,3.666a.612.612,0,0,0-.689-.694q-8.465,9.81-22.046,24.474,22.635,15.36,25.687,22.2a35.287,35.287,0,0,1,.788,5.945q-1.476,3.369-2.953,3.666h-2.263q-10.138,0-23.523-23.681l-2.952-2.279q-1.969.991-9.546,13.377-9.352,11.889-12.5,11.89h-6.593q-2.267-.792-2.264-4.46,0-11,23.621-24.474l2.164-2.972q-21.653-22.986-22.833-22.987-3.445,0-11.022-13.278-1.084,0-2.953-2.973-5.512,1.486-5.807,1.487-5.217,0-21.357-18.529-5.9-4.656-5.9-7.431l1.476-.694a105.491,105.491,0,0,0,19.093,19.223l1.476-2.181-21.357-22.194,1.477-.793,22.144,21.5q.2-1.487,1.477-1.487,0-1.98-15.452-16.349l-5.217-5.845v-1.487h.787l21.357,21.4h.689l1.477-2.179-18.4-19.223h2.264q23.522,20.212,23.521,26.653l-1.475,5.946a116.908,116.908,0,0,0,16.141,11.791q0,5.648,11.022,13.377,0,.793,12.5,11.791,24.308-20.809,24.309-25.168,0-.395,3.642-3.666a1.309,1.309,0,0,1-1.476-1.486v-.793Q1224.3,782.7,1248.507,759.312ZM1181.583,728.2q22.241,0,31.592,12.585a4.877,4.877,0,0,0,.787,2.179q-1.969,6.739-6.692,6.738-.395,0-9.546-.792-3.643,1.09-3.643,5.251v2.873q0,4.957,5.118,14.07-.69,0-.689.793-7.085-2.18-18.4-2.18a71.106,71.106,0,0,0-25.785,5.153c0-.528-.231-.793-.689-.793q3.639-13.277,3.641-14.764v-2.279q0-4.359-3.641-4.36l-11.81.694q-2.952-3.07-2.953-5.945,0-13.177,34.643-19.223Zm-6.594,62.225h1.378q1.082,0,2.263,2.181v2.972q0,1.092-2.263,2.279h-4.33a22.461,22.461,0,0,1-11.122-2.973V793.4h4.429Q1167.312,793.4,1174.989,790.424Zm-4.429-12.583h.689q1.081,0,2.263,2.18,0,1.092-2.263,2.279h-.689q-1.085,0-2.264-2.279Q1168.3,778.932,1170.56,777.841Zm12.5,12.583a24.322,24.322,0,0,1,8.759,2.181l4.429-.694h1.477q0,3.864-14.665,5.945-2.953-1.188-2.953-2.279V792.6Q1180.106,790.822,1183.059,790.424Zm2.165-13.375h1.477q1.476.3,1.475,1.486v1.486a1.308,1.308,0,0,1-1.475,1.486h-1.477a1.309,1.309,0,0,1-1.476-1.486v-1.486Q1184.042,777.049,1185.224,777.049Z" transform="translate(-216.325 61.801)" fill="#295732"/></g></svg>