<svg xmlns="http://www.w3.org/2000/svg" width="125" height="141.988" viewBox="0 0 125 141.988"><g transform="translate(-1274 -790)"><circle cx="60" cy="60" r="60" transform="translate(1279 799)" fill="#b1e0b2"/><path d="M1240.091,241.377h1.378q11.611,0,14.271,29.329-.69,6.045-.689,6.836l15.55,72.333-2.657,2.08q-8.663-2.971-8.858-3.368-4.527,0-5.413,8.818,0,2.775,4.134,17.043v1.387q-1.182,7.531-7.48,7.53h-.689q-9.547-1.188-9.547-9.512v-.693q0-2.379,4.823-19.124v-1.387q-1.38-9.511-3.445-9.512a6.659,6.659,0,0,0-4.035,3.368v4.064q2.656,11.1,2.657,12.285-1.969,4.857-6.1,4.856-6.79-1.386-6.791-6.837l3.445-12.98v-2.774q0-7.528-7.479-7.531a263.057,263.057,0,0,0-29.132-9.512,10.912,10.912,0,0,1-4.724,1.387q-26.477-5.054-26.475-17.736,6.2-24.771,25.786-45.777Q1213.912,244.154,1240.091,241.377Zm-67.81,71.638q0,2.379,17.027,7.531,1.574,0,4.724-8.819-8.171-5.35-8.169-6.143.2-1.386,1.378-1.387h.689a41.366,41.366,0,0,0,8.759,1.387,100.577,100.577,0,0,1,10.236-14.368q-6.792-11.691-6.791-12.979a4.7,4.7,0,0,1,2.066-.7q3.249,0,13.484,6.837,11.612-8.918,17.026-8.917l-2.755-9.512,1.377-.693q6.1,5.052,6.1,8.223a51.332,51.332,0,0,1,9.448-1.387V271.4q-2.658-21.105-6.791-21.106-25.981,5.053-43.992,20.412Q1174.841,294.983,1172.281,313.015Zm40.746-4.756v2.081q0,5.648,6.791,6.837h1.968q6.79-1.387,6.791-6.837v-2.081q0-5.745-8.07-7.531Q1213.025,303.107,1213.027,308.259Zm26.474-13.673q0,2.477,3.346,4.161,3.049,0,4.724-4.161,0-4.062-4.724-4.063Q1239.5,290.523,1239.5,294.586Zm1.279,29.428q1.377,6.144,6.1,6.142,6.1,0,6.1-6.142,0-2.773-4.036-5.45h-2.067Q1242.355,318.564,1240.78,324.014Z" transform="translate(111.167 548.623)" fill="#295732"/></g></svg>